<svg width="28" height="28" viewBox="0 0 28 28" fill="none" xmlns="http://www.w3.org/2000/svg">
<path d="M14.0233 3.39502C10.1617 3.39502 7.02334 6.53335 7.02334 10.395V13.7667C7.02334 14.4784 6.72001 15.5634 6.35834 16.17L5.01668 18.3984C4.18834 19.775 4.76001 21.3034 6.27668 21.8167C11.305 23.4967 16.73 23.4967 21.7583 21.8167C23.17 21.35 23.7883 19.6817 23.0183 18.3984L21.6767 16.17C21.3267 15.5634 21.0233 14.4784 21.0233 13.7667V10.395C21.0233 6.54502 17.8733 3.39502 14.0233 3.39502Z" stroke="#282828" stroke-width="1.5" stroke-miterlimit="10" stroke-linecap="round"/>
<path d="M16.1817 3.73343C15.82 3.62843 15.4467 3.54676 15.0617 3.50009C13.9417 3.36009 12.8683 3.44176 11.865 3.73343C12.2033 2.87009 13.0433 2.26343 14.0233 2.26343C15.0033 2.26343 15.8433 2.87009 16.1817 3.73343Z" stroke="#282828" stroke-width="1.5" stroke-miterlimit="10" stroke-linecap="round" stroke-linejoin="round"/>
<path d="M17.5233 22.2366C17.5233 24.1616 15.9483 25.7366 14.0233 25.7366C13.0667 25.7366 12.18 25.3399 11.55 24.7099C10.92 24.0799 10.5233 23.1932 10.5233 22.2366" stroke="#282828" stroke-width="1.5" stroke-miterlimit="10"/>
<path d="M16.65 8C16.65 6.14985 18.1498 4.65 20 4.65C21.8502 4.65 23.35 6.14985 23.35 8C23.35 9.85015 21.8502 11.35 20 11.35C18.1498 11.35 16.65 9.85015 16.65 8Z" fill="#FF0000" stroke="#282828" stroke-width="1.3"/>
</svg>
